<svg width="2422" height="391" viewBox="0 0 2422 391" fill="none" xmlns="http://www.w3.org/2000/svg">
<path d="M2110.94 310.623L2199.61 114.814H2227.31L2316.26 310.623H2286.89L2207.72 130.479H2218.91L2139.75 310.623H2110.94ZM2148.7 261.671L2156.25 239.293H2266.47L2274.58 261.671H2148.7Z" fill="#434343"/>
<path d="M1873.43 310.623V114.814H1896.37L1984.2 262.79H1971.89L2058.61 114.814H2081.55L2081.83 310.623H2054.97L2054.69 157.053H2061.13L1983.92 286.846H1971.05L1893.29 157.053H1900.28V310.623H1873.43Z" fill="#434343"/>
<path d="M1745.75 312.862C1730.64 312.862 1716.75 310.438 1704.07 305.589C1691.39 300.554 1680.38 293.561 1671.06 284.61C1661.73 275.472 1654.46 264.843 1649.24 252.721C1644.02 240.6 1641.41 227.266 1641.41 212.72C1641.41 198.174 1644.02 184.841 1649.24 172.719C1654.46 160.598 1661.73 150.061 1671.06 141.11C1680.57 131.972 1691.66 124.979 1704.35 120.131C1717.03 115.096 1731.01 112.578 1746.3 112.578C1761.78 112.578 1775.96 115.096 1788.82 120.131C1801.69 125.166 1812.6 132.718 1821.55 142.789L1804.21 160.132C1796.19 152.299 1787.42 146.611 1777.91 143.068C1768.59 139.339 1758.43 137.474 1747.42 137.474C1736.23 137.474 1725.79 139.339 1716.09 143.068C1706.58 146.798 1698.29 152.02 1691.2 158.733C1684.3 165.446 1678.89 173.465 1674.97 182.789C1671.24 191.927 1669.38 201.904 1669.38 212.72C1669.38 223.35 1671.24 233.327 1674.97 242.651C1678.89 251.789 1684.3 259.807 1691.2 266.707C1698.29 273.421 1706.58 278.642 1716.09 282.372C1725.6 286.102 1735.95 287.967 1747.14 287.967C1757.59 287.967 1767.56 286.381 1777.07 283.211C1786.77 279.855 1795.72 274.353 1803.93 266.707L1819.87 287.967C1810.18 296.172 1798.8 302.419 1785.75 306.708C1772.88 310.811 1759.55 312.862 1745.75 312.862ZM1793.02 284.33V211.601H1819.87V287.967L1793.02 284.33Z" fill="#434343"/>
<path d="M1570.76 310.623V114.814H1598.73V310.623H1570.76Z" fill="#434343"/>
<path d="M1454.08 312.862C1439.17 312.862 1424.9 310.624 1411.29 306.149C1397.67 301.487 1386.95 295.519 1379.12 288.246L1389.47 266.428C1396.93 272.955 1406.44 278.363 1418 282.652C1429.56 286.941 1441.59 289.085 1454.08 289.085C1465.46 289.085 1474.69 287.78 1481.78 285.169C1488.86 282.559 1494.09 279.015 1497.44 274.54C1500.8 269.878 1502.48 264.656 1502.48 258.875C1502.48 252.162 1500.24 246.754 1495.76 242.651C1491.47 238.548 1485.79 235.285 1478.7 232.86C1471.8 230.25 1464.15 228.012 1455.76 226.147C1447.37 224.282 1438.89 222.138 1430.31 219.713C1421.92 217.103 1414.18 213.839 1407.09 209.923C1400.19 206.007 1394.6 200.785 1390.31 194.258C1386.02 187.545 1383.87 178.967 1383.87 168.523C1383.87 158.453 1386.48 149.222 1391.71 140.83C1397.11 132.252 1405.32 125.446 1416.32 120.41C1427.51 115.189 1441.68 112.578 1458.84 112.578C1470.22 112.578 1481.5 114.07 1492.69 117.054C1503.88 120.037 1513.57 124.327 1521.78 129.921L1512.55 152.299C1504.16 146.705 1495.3 142.695 1485.97 140.271C1476.65 137.66 1467.6 136.355 1458.84 136.355C1447.84 136.355 1438.79 137.753 1431.71 140.551C1424.62 143.348 1419.4 147.078 1416.04 151.74C1412.87 156.402 1411.29 161.623 1411.29 167.404C1411.29 174.304 1413.43 179.806 1417.72 183.908C1422.2 188.011 1427.88 191.274 1434.78 193.699C1441.87 196.123 1449.61 198.361 1458 200.412C1466.39 202.277 1474.78 204.422 1483.18 206.846C1491.75 209.27 1499.49 212.44 1506.39 216.357C1513.48 220.273 1519.17 225.494 1523.46 232.021C1527.75 238.548 1529.89 246.94 1529.89 257.197C1529.89 267.08 1527.19 276.311 1521.78 284.89C1516.37 293.281 1507.98 300.088 1496.6 305.31C1485.41 310.345 1471.24 312.862 1454.08 312.862Z" fill="#434343"/>
<path d="M1076.78 150.685V119.174C1076.78 117.965 1076.3 116.804 1075.44 115.948L1044.68 85.2196C1043.82 84.3637 1042.66 83.8828 1041.45 83.8828H965.302C964.091 83.8828 962.929 84.3637 962.072 85.2196L931.313 115.948C930.456 116.804 929.976 117.963 929.976 119.174V181.317C929.976 183.088 930.68 184.787 931.934 186.04L961.451 215.527C962.705 216.78 964.406 217.483 966.179 217.483H1036.65C1040.35 217.483 1043.34 220.474 1043.34 224.164V272.23C1043.34 276.224 1040.1 279.463 1036.1 279.463H970.648C966.649 279.463 963.407 276.224 963.407 272.23V250.883H929.973V277.574C929.973 278.783 930.454 279.944 931.311 280.798L962.071 311.526C962.928 312.382 964.088 312.863 965.3 312.863H1041.45C1042.66 312.863 1043.82 312.382 1044.68 311.528L1075.44 280.8C1076.3 279.944 1076.78 278.784 1076.78 277.574V220.25C1076.78 218.479 1076.07 216.78 1074.82 215.527L1045.3 186.04C1044.05 184.787 1042.35 184.084 1040.57 184.084H970.1C966.406 184.084 963.412 181.093 963.412 177.403V124.518C963.412 120.523 966.654 117.285 970.653 117.285H1036.1C1040.1 117.285 1043.34 120.523 1043.34 124.518V150.684L1076.78 150.685Z" fill="#434343"/>
<path d="M752.268 117.285C751.064 117.285 749.902 117.766 749.045 118.622L718.285 149.35C717.43 150.205 716.947 151.367 716.947 152.57V312.862H750.381V157.913C750.381 153.918 753.619 150.686 757.617 150.686V117.285H752.268Z" fill="#434343"/>
<path d="M726.862 110.754C727.364 111.255 728.045 111.537 728.753 111.537H738.574C739.282 111.537 739.963 111.255 740.465 110.754L749.596 101.632C750.098 101.131 750.38 100.451 750.38 99.7428V89.9311C750.38 89.223 750.098 88.5429 749.596 88.0418L740.465 78.9195C739.963 78.4184 739.282 78.1367 738.574 78.1367H728.753C728.045 78.1367 727.364 78.4184 726.862 78.9195L717.731 88.0418C717.229 88.5429 716.947 89.223 716.947 89.9311V99.7413C716.947 100.449 717.229 101.129 717.731 101.63L726.862 110.754Z" fill="#434343"/>
<path d="M602.897 184.09C588.161 184.09 570.15 186.404 559.73 196.814L557.413 194.5C567.833 184.09 570.15 166.096 570.15 151.375V124.524C570.15 120.529 573.391 117.291 577.39 117.291H642.843C646.842 117.291 650.084 120.529 650.084 124.524V179.529C650.084 180.738 649.602 181.899 648.745 182.755C647.889 183.611 646.728 184.092 645.516 184.092L602.897 184.09ZM682.178 115.954L651.42 85.2274C650.563 84.3715 649.403 83.8906 648.191 83.8906H572.041C570.83 83.8906 569.668 84.3715 568.811 85.2274L538.053 115.954C537.196 116.81 536.715 117.97 536.715 119.18V312.866H570.15V217.491H648.192C649.403 217.491 650.565 217.01 651.422 216.154L682.181 185.426C683.038 184.57 683.52 183.41 683.52 182.2V119.18C683.52 117.971 683.038 116.81 682.181 115.954H682.178Z" fill="#434343"/>
<path d="M824.565 83.8906C823.355 83.8906 822.192 84.3715 821.336 85.2258L790.576 115.954C789.719 116.81 789.238 117.97 789.238 119.18V312.866H822.672V124.524C822.672 120.529 825.914 117.291 829.913 117.291H900.715V83.8906H824.563H824.565Z" fill="#434343"/>
<path d="M1256.51 116.704L1224.24 84.4703C1223.87 84.0968 1223.36 83.8867 1222.83 83.8867H1144.55C1144.02 83.8867 1143.51 84.0968 1143.14 84.4703L1110.87 116.704C1110.5 117.077 1110.29 117.583 1110.29 118.112V312.862H1143.72V242.664C1143.72 242.366 1143.97 242.123 1144.27 242.123H1162.62L1177.29 219.742C1178.26 218.271 1179.9 217.386 1181.66 217.386H1218.44C1221.32 217.386 1223.66 219.718 1223.66 222.596V312.866H1257.09V118.112C1257.09 117.584 1256.88 117.077 1256.51 116.704H1256.51ZM1178.58 189.871L1144.72 240.609C1144.42 241.055 1143.73 240.844 1143.73 240.308V121.951C1143.73 119.376 1145.82 117.287 1148.39 117.287H1218.99C1221.57 117.287 1223.66 119.376 1223.66 121.949V178.875C1223.66 181.752 1221.32 184.085 1218.44 184.085H1189.4C1185.05 184.085 1180.99 186.256 1178.58 189.871H1178.58Z" fill="#434343"/>
<path d="M293.681 310.273H246.767C245.994 310.273 245.367 310.9 245.367 311.673V358.585C245.367 359.358 245.994 359.985 246.767 359.985H293.681C294.454 359.985 295.081 359.358 295.081 358.585V311.673C295.081 310.9 294.454 310.273 293.681 310.273Z" fill="#192FC4"/>
<path d="M275.626 185.227H264.828C262.135 185.227 259.951 187.41 259.951 190.104V200.901C259.951 203.595 262.135 205.778 264.828 205.778H275.626C278.32 205.778 280.503 203.595 280.503 200.901V190.104C280.503 187.41 278.32 185.227 275.626 185.227Z" fill="#8F2791"/>
<path d="M154.055 170.648H107.141C106.368 170.648 105.741 171.275 105.741 172.048V218.96C105.741 219.733 106.368 220.36 107.141 220.36H154.055C154.828 220.36 155.454 219.733 155.454 218.96V172.048C155.454 171.275 154.828 170.648 154.055 170.648Z" fill="#192FC4"/>
<path d="M293.681 31.0156H246.767C245.994 31.0156 245.367 31.6424 245.367 32.4155V79.3274C245.367 80.1005 245.994 80.7272 246.767 80.7272H293.681C294.454 80.7272 295.081 80.1005 295.081 79.3274V32.4155C295.081 31.6424 294.454 31.0156 293.681 31.0156Z" fill="#192FC4"/>
<path d="M433.311 170.648H386.397C385.624 170.648 384.997 171.275 384.997 172.048V218.96C384.997 219.733 385.624 220.36 386.397 220.36H433.311C434.084 220.36 434.711 219.733 434.711 218.96V172.048C434.711 171.275 434.084 170.648 433.311 170.648Z" fill="#192FC4"/>
<path d="M381.536 280.529C381.536 294.14 370.505 305.171 356.894 305.171C343.282 305.171 332.256 294.14 332.256 280.529C332.256 266.918 343.287 255.893 356.894 255.893C370.501 255.893 381.536 266.923 381.536 280.529Z" fill="#ED1A39"/>
<path d="M159.135 280.529C159.135 294.14 170.166 305.171 183.777 305.171C197.384 305.171 208.415 294.14 208.415 280.529C208.415 266.923 197.384 255.893 183.777 255.893C170.166 255.893 159.135 266.923 159.135 280.529Z" fill="#ED1A39"/>
<path d="M158.91 108.829C158.91 95.2181 169.941 84.1875 183.552 84.1875C197.159 84.1875 208.19 95.2178 208.19 108.829C208.19 122.435 197.159 133.465 183.552 133.465C169.941 133.465 158.91 122.435 158.91 108.829Z" fill="#ED1A39"/>
<path d="M181.987 172.007V195.515C194.408 200.24 208.065 200.609 220.723 196.562L223.998 195.515V192.982C233.53 192.982 245.186 188.217 252.273 181.845C253.769 180.502 255.185 179.094 256.513 177.612C262.9 170.547 267.68 158.892 267.68 149.36L270.224 149.354C274.949 137.12 275.375 123.643 271.433 111.135L270.224 107.301L246.697 107.306C245.938 107.306 245.325 107.905 245.295 108.664C245.142 113.181 244.763 117.714 243.96 121.969C239.011 145.251 219.933 164.314 196.664 169.263C192.409 170.073 187.869 170.445 183.344 170.605C182.592 170.635 181.987 171.248 181.987 172.007Z" fill="#ED1A39"/>
<path d="M358.467 172.007V195.515C346.047 200.24 332.39 200.609 319.732 196.562L316.456 195.515V192.982C306.924 192.982 295.268 188.217 288.181 181.845C286.685 180.502 285.269 179.094 283.941 177.612C277.554 170.547 272.774 158.892 272.774 149.36L270.23 149.354C265.505 137.12 265.079 123.643 269.021 111.135L270.23 107.301L293.758 107.306C294.517 107.306 295.13 107.905 295.159 108.664C295.312 113.181 295.692 117.714 296.494 121.969C301.443 145.251 320.522 164.314 343.79 169.263C348.045 170.073 352.585 170.445 357.11 170.605C357.862 170.635 358.467 171.248 358.467 172.007Z" fill="#192FC4"/>
<path d="M181.987 218.993V195.485C194.408 190.76 208.065 190.391 220.723 194.438L223.998 195.485V198.018C233.53 198.018 245.186 202.784 252.273 209.155C253.769 210.498 255.185 211.906 256.513 213.388C262.9 220.453 267.68 232.109 267.68 241.64L270.224 241.646C274.949 253.88 275.375 267.357 271.433 279.865L270.224 283.699L246.697 283.694C245.938 283.694 245.325 283.095 245.295 282.336C245.142 277.819 244.763 273.286 243.96 269.031C239.011 245.749 219.933 226.686 196.664 221.737C192.409 220.927 187.869 220.555 183.344 220.395C182.592 220.365 181.987 219.752 181.987 218.993V218.993Z" fill="#192FC4"/>
<path d="M358.467 218.993V195.485C346.047 190.76 332.39 190.391 319.732 194.438L316.456 195.485V198.018C306.924 198.018 295.268 202.784 288.181 209.155C286.685 210.498 285.269 211.906 283.941 213.388C277.554 220.453 272.774 232.109 272.774 241.64L270.23 241.646C265.505 253.88 265.079 267.357 269.021 279.865L270.23 283.699L293.758 283.694C294.517 283.694 295.13 283.095 295.159 282.336C295.312 277.819 295.692 273.286 296.494 269.031C301.443 245.749 320.522 226.686 343.79 221.737C348.045 220.927 352.585 220.555 357.11 220.395C357.862 220.365 358.467 219.752 358.467 218.993V218.993Z" fill="#ED1A39"/>
<path d="M270.225 241.646C265.5 253.881 265.073 267.357 269.016 279.865L270.225 283.7L271.433 279.865C275.376 267.357 274.95 253.881 270.225 241.646Z" fill="#8F2791"/>
<path d="M319.727 194.438L316.452 195.485V195.516L319.727 196.563C332.385 200.61 346.042 200.241 358.463 195.516V195.485C346.042 190.76 332.385 190.391 319.727 194.438Z" fill="#8F2791"/>
<path d="M220.727 196.563L224.002 195.516V195.485L220.727 194.438C208.069 190.391 194.412 190.76 181.991 195.485V195.516C194.412 200.241 208.069 200.61 220.727 196.563Z" fill="#8F2791"/>
<path d="M271.434 111.135L270.225 107.301L269.016 111.135C265.073 123.643 265.5 137.12 270.225 149.354C274.95 137.12 275.376 123.643 271.434 111.135Z" fill="#8F2791"/>
<path d="M360.59 31.0156H329.383C327.676 31.0156 326.688 32.9501 327.688 34.3331L363.977 84.5011C364.506 85.2323 364.506 86.2213 363.977 86.9526L327.688 137.121C326.687 138.504 327.675 140.438 329.383 140.438H360.59C361.261 140.438 361.892 140.116 362.286 139.572L400.34 86.9526C400.869 86.2213 400.869 85.2323 400.34 84.5011L362.286 31.8816C361.892 31.3378 361.261 31.0156 360.59 31.0156Z" fill="#434343"/>
<path d="M376.887 34.8084L431.4 73.8366C432.784 74.8272 434.709 73.8383 434.709 72.1356V33.1074C434.709 31.9519 433.773 31.0156 432.617 31.0156H378.105C376.071 31.0156 375.233 33.6244 376.887 34.8084Z" fill="#858585"/>
<path d="M434.711 138.346V99.3181C434.711 97.6154 432.785 96.6265 431.401 97.6171L376.889 136.645C375.235 137.829 376.073 140.438 378.106 140.438H432.619C433.774 140.438 434.711 139.502 434.711 138.346Z" fill="#858585"/>
</svg>
